<svg xmlns="http://www.w3.org/2000/svg" viewBox="0 0 1024 1024" width="1024" height="1024">
  <defs>
    <linearGradient id="rim" gradientUnits="userSpaceOnUse" x1="0" y1="305" x2="0" y2="719">
      <stop stop-color="#FFFFFF"/><stop offset="1" stop-color="#AEB3BD"/>
    </linearGradient>
    <linearGradient id="liquid" x1="0" y1="0" x2="1" y2="1">
      <stop stop-color="#CEFCE8"/><stop offset=".35" stop-color="#98E7CA"/><stop offset=".75" stop-color="#4FC6A8"/><stop offset="1" stop-color="#258F7B"/>
    </linearGradient>
  </defs>
  <rect x="770" y="421" width="78" height="182" rx="36" fill="url(#rim)"/>
  <rect x="176" y="305" width="637" height="414" rx="132" fill="url(#rim)"/>
  <rect x="202" y="331" width="585" height="362" rx="107" fill="#213E35"/>
  <path d="M211 464C304 421 388 448 489 469C589 490 688 471 777 424V585A99 99 0 0 1 678 684H310A99 99 0 0 1 211 585Z" fill="url(#liquid)"/>
  <path d="M236 459C316 428 392 450 489 470C588 490 678 475 754 435" fill="none" stroke="#E7FFF0" stroke-opacity=".75" stroke-width="17" stroke-linecap="round"/>
</svg>
